<svg xmlns="http://www.w3.org/2000/svg" width="38" height="34" viewBox="0 0 38 34">
    <path fill="#E5C22C" d="M36.362.753c-1.692-.908-3.58.843-4.686 1.88-2.538 2.464-4.686 5.317-7.094 7.91-2.668 2.853-5.142 5.706-7.875 8.494-1.562 1.556-3.254 3.242-4.296 5.187-2.343-2.27-4.36-4.733-6.964-6.743-1.887-1.427-5.011-2.464-4.946.972.13 4.474 4.1 9.272 7.03 12.32 1.236 1.296 2.863 2.658 4.75 2.723 2.278.13 4.621-2.594 5.988-4.085 2.408-2.594 4.36-5.511 6.573-8.17 2.864-3.5 5.793-6.937 8.592-10.503 1.757-2.205 7.289-7.651 2.928-9.985zM3.365 18.194c-.065 0-.13 0-.26.065-.261-.065-.456-.13-.717-.26.196-.13.521-.064.977.195z"/>
</svg>
